# xmcd
#
# Track frame offsets:
#	150
#	13967
#	29524
#	46836
#	67530
#	93855
#	108467
#	124051
#	140483
#	154905
#	170497
#	186129
#
# Disc length: 2953 seconds
#
# Revision: 0
# Processed by: cddbd v1.5.2PL0 Copyright (c) Steve Scherf et al.
# Submitted via: audiograbber 1.83.01
#
DISCID=9a0b870c
DTITLE=Dave Reynolds - The Real Matilda
DYEAR=1900
DGENRE=Country
TTITLE0=The Murray Stream
TTITLE1=Clancy Of The Overflow
TTITLE2=Waltzing Matilda
TTITLE3=The Roaring Days
TTITLE4=Such Is Life
TTITLE5=Henry Lawson
TTITLE6=Old River Boats
TTITLE7=Tibrogargon
TTITLE8=Spirit Of Cobb and Co
TTITLE9=Stockmans Hall Of Fame
TTITLE10=This Land Is Part Of You
TTITLE11=The Man From Snowy River
EXTD=
EXTT0=
EXTT1=
EXTT2=
EXTT3=
EXTT4=
EXTT5=
EXTT6=
EXTT7=
EXTT8=
EXTT9=
EXTT10=
EXTT11=
PLAYORDER=
